#!OML:ASF E:\Mandelcareful walks\Project 1\Capture day 1\Session 1\Subject1.ASF
:FULLY-SPECIFIED
:DEGREES
996
root -8.28887 15.3008 -4.12336 -700.465 -2.85751 -720.696
lowerback 28.2872 2.67453 1.67755
upperback 6.31267 3.30704 -5.2041
thorax -8.07758 1.50246 -7.98007
lowerneck -24.9658 15.5524 12.5728
upperneck 16.3022 22.8682 -22.0711
head 14.1075 8.62796 -5.51242
rclavicle 2.70347e-014 -1.31198e-014
rhumerus -23.9829 -3.91903 -93.1378
rradius 26.5162
rwrist -46.0286
rhand 5.99573 -38.406
rfingers 7.12502
rthumb 31.3193 -65.7461
lclavicle 2.70347e-014 -1.31198e-014
lhumerus -69.9594 -87.2586 162.48
lradius 52.2187
lwrist 1.91346
lhand -1.165 -1.937
lfingers 7.12502
lthumb 24.474 26.5194
rfemur -35.0124 -2.99932 -0.272478
rtibia 44.4403
rfoot -14.9753 -17.9082
rtoes -25.5716
lfemur -55.5408 10.8249 -16.6809
ltibia 61.1508
lfoot -20.5475 9.89669
ltoes -8.36644
997
root -8.15055 15.3291 -4.05025 -700.502 -2.39799 -721.169
lowerback 28.0715 2.55501 1.16298
upperback 6.15501 3.05416 -4.78677
thorax -8.24389 1.38403 -7.10626
lowerneck -23.8228 15.8866 12.197
upperneck 15.4199 23.5076 -22.5167
head 13.6921 8.97989 -5.45962
rclavicle 6.12257e-014 -8.78628e-014
rhumerus -24.2457 -3.2198 -92.9147
rradius 26.1754
rwrist -46.0185
rhand 6.22392 -38.312
rfingers 7.12502
rthumb 31.5367 -65.6098
lclavicle 6.12257e-014 -8.78628e-014
lhumerus -53.1006 -86.5636 146.175
lradius 51.7334
lwrist 1.75482
lhand 2.2705 1.21512
lfingers 7.12502
lthumb 27.7633 29.1849
rfemur -34.7134 -2.69526 0.0274737
rtibia 44.5813
rfoot -14.4488 -18.8174
rtoes -23.6251
lfemur -55.3255 10.6284 -16.7105
ltibia 61.1549
lfoot -20.9111 9.62374
ltoes -7.36814
998
root -8.02075 15.3629 -3.98388 -700.515 -1.81018 -721.404
lowerback 28.1357 2.84582 1.67899
upperback 6.18022 3.51444 -5.35662
thorax -8.11156 1.59801 -8.22254
lowerneck -24.7119 15.857 12.9362
upperneck 15.8026 23.0865 -22.0907
head 13.9438 8.79206 -5.50105
rclavicle -1.31198e-014 -4.49253e-014
rhumerus -23.9004 -6.31469 -93.2407
rradius 25.7482
rwrist -45.2833
rhand 6.34336 -37.8907
rfingers 7.12502
rthumb 31.6504 -65.1661
lclavicle -1.31198e-014 -4.49253e-014
lhumerus -91.2344 -87.5525 183.934
lradius 51.6809
lwrist 1.84955
lhand 3.55148 2.96848
lfingers 7.12502
lthumb 28.9874 30.7344
rfemur -34.6035 -2.83355 0.304308
rtibia 44.8788
rfoot -13.9621 -19.7821
rtoes -21.5598
lfemur -54.9055 9.10128 -16.4071
ltibia 60.9932
lfoot -21.5065 10.5337
ltoes -7.0816
999
root -7.91155 15.3866 -3.91699 -700.588 -1.38392 -721.541
lowerback 27.8488 2.63669 0.268244
upperback 6.06518 2.93181 -4.62207
thorax -8.30987 1.34184 -6.34381
lowerneck -23.3857 16.2699 11.6496
upperneck 14.5726 24.1006 -22.6232
head 13.3282 9.28938 -5.24135
rclavicle 4.45278e-014 -3.77691e-014
rhumerus -24.0335 -3.74445 -92.7538
rradius 25.3934
rwrist -45.4726
rhand 6.35988 -37.6584
rfingers 7.12502
rthumb 31.6662 -64.9307
lclavicle 4.45278e-014 -3.77691e-014
lhumerus -44.9894 -86.0757 138.43
lradius 51.2776
lwrist 1.78587
lhand 1.0003 0.131165
lfingers 7.12502
lthumb 26.5481 28.2907
rfemur -34.75 -3.0103 0.690467
rtibia 45.3789
rfoot -13.367 -21.1986
rtoes -20.3384
lfemur -54.4412 8.25754 -16.4331
ltibia 60.8056
lfoot -21.9855 11.1358
ltoes -8.27909
1000
root -7.80507 15.4029 -3.84966 -700.765 -0.911949 -721.53
lowerback 27.6734 2.61506 -0.540388
upperback 6.06023 2.71047 -4.39613
thorax -8.30463 1.255 -5.53096
lowerneck -22.7539 16.4231 11.0346
upperneck 13.8691 24.462 -22.8734
head 12.9658 9.49269 -5.15488
rclavicle 2.62396e-014 -1.51076e-014
rhumerus -23.9837 -2.6585 -92.6407
rradius 25.119
rwrist -45.2221
rhand 6.34647 -37.475
rfingers 7.12502
rthumb 31.6534 -64.7499
lclavicle 2.62396e-014 -1.51076e-014
lhumerus -35.046 -85.1744 128.823
lradius 51.0338
lwrist 2.04891
lhand -7.41008 -9.32129
lfingers 7.12502
lthumb 18.4764 19.8212
rfemur -34.8468 -3.29385 0.968136
rtibia 45.919
rfoot -13.2775 -22.5899
rtoes -18.0552
lfemur -53.8699 7.34768 -16.6363
ltibia 60.577
lfoot -22.2679 11.5662
ltoes -9.5438
1001
root -7.70443 15.4051 -3.78327 -700.995 -0.330998 -721.385
lowerback 27.4861 2.64086 -1.10254
upperback 6.14916 2.60284 -4.39379
thorax -8.1468 1.22072 -5.14982
lowerneck -22.5569 16.5275 10.7248
upperneck 13.5652 24.6522 -22.8984
head 12.8074 9.59753 -5.06916
rclavicle -4.49253e-014 5.1684e-015
rhumerus -23.7821 -2.1173 -92.663
rradius 24.9052
rwrist -45.031
rhand 6.27884 -37.4635
rfingers 7.12502
rthumb 31.589 -64.751
lclavicle -4.49253e-014 5.1684e-015
lhumerus -30.3535 -84.8524 124.307
lradius 50.8246
lwrist 2.01911
lhand -7.03455 -9.09463
lfingers 7.12502
lthumb 18.8376 20.0132
rfemur -34.9409 -3.86915 1.1823
rtibia 46.5623
rfoot -13.3725 -23.6612
rtoes -16.513
lfemur -53.5083 7.44611 -17.3923
ltibia 60.5082
lfoot -22.3394 10.7892
ltoes -8.94884
